<?xml version="1.0" encoding="UTF-8"?>
<svg id="Layer_1" data-name="Layer 1" xmlns="http://www.w3.org/2000/svg" viewBox="0 0 1219.97 352.48">
  <defs>
    <style>
      .cls-1 {
        fill: none;
        stroke: #626262;
        stroke-linecap: round;
        stroke-linejoin: round;
        stroke-width: 108px;
      }

      .cls-2 {
        fill: #626262;
      }
    </style>
  </defs>
  <path class="cls-2" d="M389.03,306.82l99.49-192.98c23.8-46.15-9.71-101.13-61.64-101.13h-198.99c-51.93,0-85.43,54.97-61.64,101.13l99.49,192.98c25.83,50.09,97.45,50.09,123.28,0Z"/>
  <path class="cls-2" d="M230.57,307.25l99.49-192.98c23.8-46.15-9.71-101.13-61.64-101.13H69.44C17.51,13.14-15.99,68.12,7.8,114.27l99.49,192.98c25.83,50.09,97.45,50.09,123.28,0Z"/>
  <path class="cls-2" d="M548.99,48.95l-117.77,228.43c-15.87,30.78,6.48,67.45,41.11,67.45h235.53c34.63,0,56.98-36.66,41.11-67.45l-117.77-228.43c-17.23-33.41-65-33.41-82.22,0Z"/>
  <line class="cls-1" x1="823.73" y1="56.62" x2="823.73" y2="298.48"/>
  <line class="cls-1" x1="948.67" y1="56.62" x2="948.67" y2="298.48"/>
  <path class="cls-2" d="M1064.39,132.86l88.13,45.44c30.78,15.87,67.45-6.48,67.45-41.11V46.31c0-34.63-36.66-56.98-67.45-41.11l-88.13,45.44c-33.41,17.23-33.41,65,0,82.22Z"/>
  <path class="cls-2" d="M1185.13,206.04l-88.13-45.44c-30.78-15.87-67.45,6.48-67.45,41.11v90.88c0,34.63,36.66,56.98,67.45,41.11l88.13-45.44c33.41-17.23,33.41-65,0-82.22Z"/>
</svg>