<?xml version="1.0" encoding="UTF-8"?>
<svg id="Layer_1" data-name="Layer 1" xmlns="http://www.w3.org/2000/svg" viewBox="0 0 622.28 409.81">
  <path d="M120.73,5.82c-14.57-8.04-32.82-6.51-48.43-2.83C30.78,12.24-2.74,44.75.18,91.17c.74,10.02,2.92,18.71,5.87,27.11,18.71,41.16,68.23,131.7,104.12,202.53,6.93,13.31,11.42,22.04,16.58,31.95,5.38,10.62,9.12,17.42,16.98,26.55,36.67,46.38,116.77,38.95,141.7-15.99,3.99-9.63,5.55-16.18,1.1-24.15-31.13-63.45-123.27-251.94-159.25-325.34-1.59-3.28-3.01-5.8-6.47-7.95l-.09-.06Z"/>
  <path d="M536.53.21h-153.56c-11.4,0-18.84,11.97-13.79,22.19l131.47,266.4c5.59,11.32,21.68,11.46,27.46.24l84.53-163.95C642.02,68.09,600.66.21,536.53.21Z"/>
  <path d="M327.62,14.97c-4.46-9.04-13.66-14.76-23.74-14.76h-18.07c-1.73,0-3.45.05-5.14.15h-82.64c-19.55,0-32.36,20.47-23.81,38.05l152.89,314.39,5.45,10.57c31.89,61.86,120.34,61.86,152.23,0l1.43-2.78c3.85-7.47,3.93-16.32.21-23.85L327.62,14.97Z"/>
</svg>
